<svg
xmlns="http://www.w3.org/2000/svg"
viewBox="0 0 24 24" preserveAspectRatio="xMidYMid meet" focusable="false" class="style-scope yt-icon" style="pointer-events: none; display: block; width: 100%; height: 100%;"><g class="style-scope yt-icon"><path d="M12 1l9 4v6c0 5.5-3.8 10.7-9 12-5.2-1.3-9-6.5-9-12V5l9-4zM7.7 15.1A5.3 5.3 0 0 1 12 6.7a5.3 5.3 0 0 1 4.3 8.4c-.6-1.1-3-1.7-4.3-1.7-1.3 0-3.7.6-4.3 1.7zM12 8.3a2.2 2.2 0 0 0-2.2 2.2c0 1.2 1 2.2 2.2 2.2a2.2 2.2 0 0 0 2.2-2.2c0-1.2-1-2.2-2.2-2.2zm0-2.6A6.3 6.3 0 0 0 5.7 12a6.3 6.3 0 0 0 6.3 6.3 6.3 6.3 0 0 0 6.3-6.3A6.3 6.3 0 0 0 12 5.7z" class="style-scope yt-icon"></path></g></svg>