<svg
xmlns="http://www.w3.org/2000/svg"
viewBox="0 0 24 24" preserveAspectRatio="xMidYMid meet" focusable="false" class="style-scope yt-icon" style="pointer-events: none; display: block; width: 100%; height: 100%;"><g class="style-scope yt-icon"><path d="M6.85 7.76V6.18H1v2.88c0 2.35 1.9 4.26 4.26 4.26h1.59v-1.59H5.4a2.81 2.81 0 01-2.81-2.8V7.75h4.26zM17.15 7.76V6.18H23v2.88c0 2.35-1.9 4.26-4.26 4.26h-1.59v-1.59h1.45a2.81 2.81 0 002.81-2.8V7.75h-4.26z" class="style-scope yt-icon"></path><path d="M12 17.29a6.87 6.87 0 01-6.87-6.87V3h13.74v7.42c0 3.8-3.07 6.87-6.87 6.87z" class="style-scope yt-icon"></path><path d="M12 17.29V3h6.87v7.42c0 3.8-3.07 6.87-6.87 6.87zM12 17.29l4.13 2.38H7.88L12 17.3zM16.13 19.67H7.88v2.38h8.25v-2.38z" class="style-scope yt-icon"></path></g></svg>